<svg width="32" height="15" viewBox="0 0 32 15" fill="none" xmlns="http://www.w3.org/2000/svg">
<path d="M28.7354 0H31.9438C31.9924 0 32.0178 0.0566906 31.9861 0.0881854L26.5584 6.98345C26.5415 7.00024 26.5415 7.03384 26.5584 7.04854L31.9861 13.9438C32.0178 13.9837 31.9861 14.0341 31.9438 14.0341H28.7354C28.7206 14.0341 28.7037 14.0257 28.6953 14.0089L24.9056 9.0894C24.8887 9.0663 24.8485 9.0663 24.8232 9.0894L21.0335 14.0089C21.0251 14.0257 21.0103 14.0341 20.9934 14.0341H17.785C17.7427 14.0341 17.7216 13.9753 17.7427 13.9438L23.1704 7.04854C23.1852 7.03384 23.1852 7.00024 23.1704 6.98345L17.7427 0.0881854C17.7131 0.048292 17.7427 0 17.785 0H20.9934C21.0103 0 21.0251 0.00839861 21.0335 0.0251958L24.8232 4.94258C24.8401 4.96778 24.8803 4.96778 24.9056 4.94258L28.6953 0.0251958C28.7037 0.00839861 28.7206 0 28.7354 0Z" fill="white"/>
<path d="M16.485 13.7264L18.5964 11.1396C18.6112 11.1228 18.6197 11.0997 18.6197 11.0829L17.0007 0.0828045C16.9922 0.042911 16.9584 0.00931658 16.9182 0.00931658H14.7814C14.7476 0.00931658 14.7159 0.0261138 14.7074 0.0576086L9.63272 10.3354C9.60102 10.4005 9.51013 10.4005 9.48688 10.3354L4.36145 0.0576086C4.34454 0.0261138 4.32129 0.00931658 4.28959 0.00931658H2.12951C2.08723 0.00931658 2.05342 0.042911 2.04496 0.0828045L0.00112912 13.9447C-0.0073252 13.993 0.0328328 14.0413 0.0835588 14.0413H2.57758C2.61986 14.0413 2.66213 14.0098 2.66213 13.9699L3.89435 4.9603C3.9028 4.87841 4.01905 4.86372 4.05286 4.9372L8.57593 14.0014C8.59284 14.035 8.6182 14.0497 8.6499 14.0497H10.419C10.4507 14.0497 10.4845 14.035 10.4929 14.0014L14.9611 4.9855C14.9928 4.91201 15.109 4.9288 15.1175 5.00859L16.3349 13.6844C16.3433 13.7578 16.4427 13.7809 16.485 13.7264Z" fill="white"/>
</svg>
